<?xml version="1.0" encoding="utf-8"?>
<!-- Generator: Adobe Illustrator 17.0.0, SVG Export Plug-In . SVG Version: 6.00 Build 0)  -->
<!DOCTYPE svg PUBLIC "-//W3C//DTD SVG 1.1//EN" "http://www.w3.org/Graphics/SVG/1.1/DTD/svg11.dtd">
<svg version="1.1" id="Layer_1" xmlns="http://www.w3.org/2000/svg" xmlns:xlink="http://www.w3.org/1999/xlink" x="0px" y="0px"
	 width="3370.39px" height="2383.94px" viewBox="0 0 3370.39 2383.94" enable-background="new 0 0 3370.39 2383.94"
	 xml:space="preserve">
<path fill="#020202" d="M1264.668,662.735v257.466H904.216V662.735H1264.668 M1263.037,594.078H904.216
	c-37.916,0-68.657,30.741-68.657,68.657v257.466c0,37.916,30.741,68.657,68.657,68.657h358.821
	c37.916,0,70.288-30.741,70.288-68.657V662.735c0-37.916-31.565-68.657-69.481-68.657H1263.037z"/>
<path fill="#020202" d="M1874.957,662.735v257.466h-360.452V662.735H1874.957 M1873.309,594.078h-358.804
	c-37.916,0-68.657,30.741-68.657,68.657v257.466c0,37.916,30.741,68.657,68.657,68.657h358.804
	c37.916,0,70.305-30.741,70.305-68.657V662.735c0-37.916-31.565-68.657-69.481-68.657H1873.309z"/>
<path fill="#020202" d="M2289.762,688.482l68.657,360.452v360.452h-240.301V688.482H2289.762 M2288.114,619.824h-169.996
	c-37.916,0-68.657,30.741-68.657,68.657v720.904c0,37.916,30.741,68.657,68.657,68.657h238.653
	c37.916,0,70.305-30.741,70.305-68.657v-360.452c0-4.308-1.219-8.616-2.025-12.839l-69.07-360.452
	c-6.179-32.389-34.689-55.818-67.662-55.818H2288.114z"/>
<path fill="#020202" d="M2513.272,554.981c-17.164-85.822-85.822-154.479-171.644-154.479H750.69v68.657h252.117h51.493h1287.328
	c55.441,0,94.456,49.948,104.325,99.296l101.647,507.619v482.998c0,18.881-15.396,35.307-34.329,35.307h-463.811h-6.905
	c-58.214,0-99.794,0-130.375,0h-56.877h-6.687c0.701-8.366,1.078-16.823,1.078-25.37c0-165.685-134.315-300-300-300
	s-300,134.315-300,300c0,8.547,0.377,17.005,1.078,25.37H1054.3h-51.493H750.69v68.657h514.056
	c39.452,119.624,152.109,205.972,284.949,205.972s245.496-86.348,284.949-205.972h20.661h68.657h57.215h68.285h463.811
	c56.865,0,102.986-47.134,102.986-103.965c0-28.562,0-489.795,0-489.795L2513.272,554.981z M1549.695,1791.009
	c-122.607,0-222-99.393-222-222s99.393-222,222-222s222,99.393,222,222S1672.302,1791.009,1549.695,1791.009z"/>
</svg>
